<svg width="72" height="72" viewBox="0 0 72 72" fill="none" xmlns="http://www.w3.org/2000/svg">
<path fill-rule="evenodd" clip-rule="evenodd" d="M16.434 3.75C15.792 3.75 15.204 3.75 14.706 3.783C14.172 3.819 13.587 3.903 12.99 4.149C11.7038 4.68184 10.6818 5.70376 10.149 6.99C9.903 7.587 9.819 8.172 9.783 8.706C9.75 9.201 9.75 9.792 9.75 10.434V10.566C9.75 11.208 9.75 11.796 9.783 12.294C9.819 12.828 9.903 13.413 10.149 14.01C10.683 15.294 11.706 16.32 12.99 16.851C13.56 17.085 14.121 17.172 14.634 17.211L9.099 21.639C7.42971 22.9742 6.0822 24.6679 5.15627 26.5945C4.23034 28.5211 3.74972 30.6314 3.75 32.769V52.656C3.75066 55.9887 4.91941 59.2158 7.053 61.776L7.158 61.905C8.154 63.099 8.796 63.87 9.516 64.527C11.6491 66.4733 14.3232 67.7256 17.184 68.118C18.15 68.25 19.149 68.25 20.706 68.25H31.5C32.0967 68.25 32.669 68.0129 33.091 67.591C33.5129 67.169 33.75 66.5967 33.75 66C33.75 65.4033 33.5129 64.831 33.091 64.409C32.669 63.9871 32.0967 63.75 31.5 63.75H20.871C19.095 63.75 18.42 63.744 17.796 63.66C15.837 63.3913 14.0061 62.5334 12.546 61.2C12.084 60.78 11.646 60.261 10.509 58.896C9.85027 58.1013 9.31986 57.2086 8.937 56.25H31.5C32.0967 56.25 32.669 56.0129 33.091 55.591C33.5129 55.169 33.75 54.5967 33.75 54C33.75 53.4033 33.5129 52.831 33.091 52.409C32.669 51.9871 32.0967 51.75 31.5 51.75H8.25V32.766C8.25 32.594 8.255 32.422 8.265 32.25H51.738C51.746 32.408 51.75 32.566 51.75 32.724V37.5C51.75 38.0967 51.9871 38.669 52.409 39.091C52.831 39.5129 53.4033 39.75 54 39.75C54.5967 39.75 55.169 39.5129 55.591 39.091C56.0129 38.669 56.25 38.0967 56.25 37.5V32.724C56.2501 30.6009 55.7759 28.5045 54.8618 26.5882C53.9478 24.6719 52.6171 22.984 50.967 21.648L45.474 17.202C46.0011 17.1653 46.5193 17.0469 47.01 16.851C48.2962 16.3182 49.3182 15.2962 49.851 14.01C50.097 13.413 50.181 12.828 50.217 12.294C50.25 11.799 50.25 11.208 50.25 10.566V10.434C50.25 9.792 50.25 9.204 50.217 8.706C50.1894 8.11787 50.0657 7.53822 49.851 6.99C49.3182 5.70376 48.2962 4.68184 47.01 4.149C46.4618 3.93427 45.8821 3.81063 45.294 3.783C44.799 3.75 44.208 3.75 43.566 3.75H16.434ZM34.929 17.25H25.209C22.971 17.25 22.383 17.28 21.864 17.46C21.345 17.64 20.865 17.988 19.119 19.386L11.91 25.155C10.992 25.887 10.23 26.769 9.639 27.75H50.385C49.7928 26.7573 49.0313 25.876 48.135 25.146L41.064 19.422C39.306 18 38.826 17.652 38.304 17.466C37.782 17.28 37.185 17.25 34.929 17.25ZM35.826 12.75H43.5C44.229 12.75 44.664 12.75 44.988 12.726C45.0916 12.7194 45.1947 12.7073 45.297 12.69C45.4724 12.6135 45.6119 12.4729 45.687 12.297C45.7053 12.1947 45.7184 12.0916 45.726 11.988C45.75 11.664 45.75 11.229 45.75 10.5C45.75 9.771 45.75 9.336 45.726 9.012C45.7194 8.90845 45.7073 8.80531 45.69 8.703C45.6135 8.52763 45.4729 8.38812 45.297 8.313C45.1947 8.29466 45.0916 8.28164 44.988 8.274C44.4924 8.25062 43.9961 8.24262 43.5 8.25H16.5C15.771 8.25 15.336 8.25 15.012 8.274C14.9084 8.28065 14.8053 8.29266 14.703 8.31C14.5276 8.38646 14.3881 8.52705 14.313 8.703C14.2947 8.80526 14.2816 8.90839 14.274 9.012C14.2506 9.50763 14.2426 10.0039 14.25 10.5C14.25 11.229 14.25 11.664 14.274 11.988C14.286 12.189 14.304 12.273 14.31 12.297C14.3865 12.4724 14.5271 12.6119 14.703 12.687C14.8053 12.7053 14.9084 12.7184 15.012 12.726C15.336 12.75 15.771 12.75 16.5 12.75H35.826Z" fill="black"/>
<path d="M30 33.75C30.5967 33.75 31.169 33.9871 31.591 34.409C32.0129 34.831 32.25 35.4033 32.25 36V39.75H36C36.5967 39.75 37.169 39.9871 37.591 40.409C38.0129 40.831 38.25 41.4033 38.25 42C38.25 42.5967 38.0129 43.169 37.591 43.591C37.169 44.0129 36.5967 44.25 36 44.25H32.25V48C32.25 48.5967 32.0129 49.169 31.591 49.591C31.169 50.0129 30.5967 50.25 30 50.25C29.4033 50.25 28.831 50.0129 28.409 49.591C27.9871 49.169 27.75 48.5967 27.75 48V44.25H24C23.4033 44.25 22.831 44.0129 22.409 43.591C21.9871 43.169 21.75 42.5967 21.75 42C21.75 41.4033 21.9871 40.831 22.409 40.409C22.831 39.9871 23.4033 39.75 24 39.75H27.75V36C27.75 35.4033 27.9871 34.831 28.409 34.409C28.831 33.9871 29.4033 33.75 30 33.75Z" fill="black"/>
<path fill-rule="evenodd" clip-rule="evenodd" d="M59.3818 45.618C55.7038 41.94 49.7308 41.724 46.0438 45.408L39.4108 52.044C35.7208 55.731 35.9398 61.704 39.6178 65.382C43.2958 69.06 49.2688 69.276 52.9558 65.592L59.5888 58.956C63.2788 55.269 63.0598 49.296 59.3818 45.618ZM49.2238 48.594C51.0328 46.785 54.1558 46.755 56.1988 48.801C58.2418 50.847 58.2148 53.967 56.4088 55.776L55.4158 56.766C54.5417 55.2944 53.4831 53.9404 52.2658 52.737C51.0615 51.5195 49.7065 50.4609 48.2338 49.587L49.2238 48.594ZM51.9298 59.775L52.0828 60.099L49.7728 62.409C47.9668 64.215 44.8438 64.245 42.8008 62.199C40.7548 60.156 40.7848 57.033 42.5908 55.224L44.9008 52.914L45.2248 53.07C46.1938 53.55 47.5798 54.417 49.0798 55.92C50.5828 57.42 51.4498 58.806 51.9298 59.775Z" fill="black"/>
</svg>
