<svg width="72" height="72" viewBox="0 0 72 72" fill="none" xmlns="http://www.w3.org/2000/svg">
<path d="M4.7998 50.4H67.1998M11.9998 50.4V26.4C11.9998 20.0348 14.5284 13.9303 19.0292 9.42946C23.5301 4.92859 29.6346 2.40002 35.9998 2.40002C42.365 2.40002 48.4695 4.92859 52.9704 9.42946C57.4712 13.9303 59.9998 20.0348 59.9998 26.4V50.4M26.3998 57.6V60C26.3998 62.5461 27.4112 64.9879 29.2116 66.7883C31.0119 68.5886 33.4537 69.6 35.9998 69.6C38.5459 69.6 40.9877 68.5886 42.788 66.7883C44.5884 64.9879 45.5998 62.5461 45.5998 60V57.6" stroke="black" stroke-width="4.8"/>
</svg>
