<svg width="72" height="72" viewBox="0 0 72 72" fill="none" xmlns="http://www.w3.org/2000/svg">
<path d="M9 31.875H63M51 7.875V19.875M21 7.875V19.875M51 13.875H21C17.8174 13.875 14.7652 15.1393 12.5147 17.3897C10.2643 19.6402 9 22.6924 9 25.875V52.125C9 55.3076 10.2643 58.3598 12.5147 60.6103C14.7652 62.8607 17.8174 64.125 21 64.125H51C54.1826 64.125 57.2348 62.8607 59.4853 60.6103C61.7357 58.3598 63 55.3076 63 52.125V25.875C63 22.6924 61.7357 19.6402 59.4853 17.3897C57.2348 15.1393 54.1826 13.875 51 13.875Z" stroke="black" stroke-width="4.5" stroke-linecap="round" stroke-linejoin="round"/>
</svg>
